<?xml version="1.0" encoding="utf-8"?>
<!-- Generator: Adobe Illustrator 17.1.0, SVG Export Plug-In . SVG Version: 6.00 Build 0)  -->
<!DOCTYPE svg PUBLIC "-//W3C//DTD SVG 1.1//EN" "http://www.w3.org/Graphics/SVG/1.1/DTD/svg11.dtd">
<svg version="1.1" id="Layer_1" xmlns="http://www.w3.org/2000/svg" xmlns:xlink="http://www.w3.org/1999/xlink" x="0px" y="0px"
	 width="1000px" height="1000px" viewBox="0 0 1000 1000" enable-background="new 0 0 1000 1000" xml:space="preserve">
<g>
	<path fill="#211915" d="M135.809,32.714v934.573h95.627v-32.5c0-16.282,13.247-29.528,29.529-29.528s29.529,13.246,29.529,29.528
		v32.5h97.633v-32.5c0-16.282,13.246-29.528,29.527-29.528c16.282,0,29.529,13.246,29.529,29.528v32.5h97.633v-32.5
		c0-16.282,13.247-29.528,29.529-29.528c16.281,0,29.527,13.246,29.527,29.528v32.5h97.635v-32.5
		c0-16.282,13.246-29.528,29.527-29.528c16.282,0,29.529,13.246,29.529,29.528v32.5h95.627V32.714h-95.627v32.5
		c0,16.282-13.247,29.528-29.529,29.528c-16.281,0-29.527-13.246-29.527-29.528v-32.5h-97.635v32.5
		c0,16.282-13.246,29.528-29.527,29.528c-16.282,0-29.529-13.246-29.529-29.528v-32.5h-97.633v32.5
		c0,16.282-13.247,29.528-29.529,29.528c-16.281,0-29.527-13.246-29.527-29.528v-32.5h-97.633v32.5
		c0,16.282-13.247,29.528-29.529,29.528s-29.529-13.246-29.529-29.528v-32.5H135.809z M260.965,159.742
		c32.564,0,61.338-16.555,78.346-41.688c17.007,25.133,45.78,41.688,78.344,41.688c32.567,0,61.339-16.551,78.346-41.688
		c17.007,25.137,45.778,41.688,78.346,41.688s61.339-16.552,78.345-41.688c17.006,25.137,45.777,41.688,78.345,41.688
		c22.833,0,43.801-8.137,60.156-21.663v723.843c-16.355-13.526-37.323-21.663-60.156-21.663c-32.567,0-61.339,16.552-78.345,41.688
		c-17.006-25.137-45.777-41.688-78.345-41.688S513.007,856.81,496,881.946c-17.007-25.137-45.778-41.688-78.346-41.688
		c-32.563,0-61.337,16.555-78.344,41.688c-17.008-25.133-45.781-41.688-78.346-41.688c-22.833,0-43.801,8.137-60.156,21.663V138.079
		C217.164,151.605,238.132,159.742,260.965,159.742z"/>
	<rect x="312.671" y="237.81" fill="#211915" width="375.384" height="65"/>
	<rect x="312.671" y="372.803" fill="#211915" width="375.384" height="65"/>
	<rect x="312.671" y="507.796" fill="#211915" width="375.384" height="65"/>
	<rect x="448.066" y="702.797" fill="#211915" width="239.988" height="65"/>
</g>
</svg>
